<?xml version="1.0" encoding="utf-8"?>
<!-- Generator: Adobe Illustrator 24.3.0, SVG Export Plug-In . SVG Version: 6.00 Build 0)  -->
<svg version="1.1" id="Layer_1" xmlns="http://www.w3.org/2000/svg" xmlns:xlink="http://www.w3.org/1999/xlink" x="0px" y="0px"
	 viewBox="0 0 566.93 396.85" style="enable-background:new 0 0 566.93 396.85;" xml:space="preserve">
<style type="text/css">
	.st0{fill:none;}
	.st1{fill-rule:evenodd;clip-rule:evenodd;fill:#009EE0;}
	.st2{fill-rule:evenodd;clip-rule:evenodd;fill:#7E2B7A;}
	.st3{fill-rule:evenodd;clip-rule:evenodd;fill:#F4F3F3;}
	.st4{fill-rule:evenodd;clip-rule:evenodd;fill:url(#SVGID_1_);}
	.st5{fill-rule:evenodd;clip-rule:evenodd;fill:url(#SVGID_2_);}
	.st6{fill-rule:evenodd;clip-rule:evenodd;fill:#472454;}
	.st7{fill-rule:evenodd;clip-rule:evenodd;fill:#FFFFFF;}
</style>
<g id="Layer_x0020_1">
	<g id="_2941277411104">
		<rect y="0" class="st0" width="566.93" height="396.85"/>
		<g id="_2941632423824">
			<path class="st1" d="M69.68,288.68H31.55v-19.64c0.68-0.34,1.25-0.79,1.7-1.3c0.43-0.51,0.82-1.16,1.16-1.96
				c0.26-0.77,0.51-1.53,0.77-2.3c0.26-0.77,0.45-1.62,0.65-2.47c0-0.17,0.03-0.34,0.06-0.51c0.06-0.17,0.11-0.37,0.17-0.51
				c0-0.09,0-0.2,0-0.28c0-0.09,0.06-0.14,0.14-0.26c0-0.09,0-0.17,0-0.26s0-0.17,0-0.26c0-0.17,0.03-0.37,0.09-0.6
				c0.03-0.2,0.09-0.4,0.17-0.57c0-0.17,0.03-0.34,0.09-0.51c0.03-0.2,0.09-0.34,0.2-0.54l14.6-78.83h49.12l16.16,80.28
				c0,0.26,0,0.45,0,0.62c0,0.2,0.06,0.37,0.14,0.54c0,0.26,0.03,0.45,0.06,0.65c0.03,0.14,0.11,0.34,0.2,0.51
				c0,0.17,0,0.34,0.06,0.51s0.11,0.34,0.2,0.51c0.09,0.28,0.14,0.48,0.2,0.65c0.03,0.17,0.11,0.34,0.2,0.54
				c0.17,0.77,0.4,1.47,0.71,2.13c0.28,0.62,0.62,1.3,0.96,1.98c0.43,0.62,0.91,1.13,1.42,1.56s1.08,0.74,1.7,0.91v19.39h-43.6
				v-19.64c0.71-0.09,1.28-0.34,1.76-0.71c0.45-0.4,0.88-0.85,1.25-1.36c0.34-0.54,0.6-1.11,0.77-1.67c0.17-0.62,0.26-1.3,0.26-2.1
				c0-0.17,0-0.31,0-0.45c0-0.11,0-0.26,0-0.45c-0.09-0.06-0.14-0.2-0.14-0.37c0-0.17,0-0.31,0-0.4c-0.09-0.26-0.14-0.51-0.2-0.77
				c-0.03-0.26-0.09-0.51-0.17-0.77l-16.7-0.28c-0.09,0.28-0.14,0.45-0.17,0.6c-0.06,0.14-0.09,0.26-0.09,0.45c0,0.09,0,0.14,0,0.2
				c0,0.03,0,0.09,0,0.2c-0.09,0.09-0.11,0.14-0.11,0.17c0,0.06,0,0.11,0,0.2c0,0.09,0,0.17,0,0.28c0,0.06,0,0.14,0,0.23
				c-0.11,0.09-0.14,0.17-0.14,0.2c0,0.06,0,0.11,0,0.2c0,0.09,0,0.2,0,0.31c0,0.14,0,0.28,0,0.45c0,0.79,0.11,1.5,0.34,2.15
				c0.2,0.65,0.48,1.22,0.82,1.73c0.43,0.54,0.91,0.99,1.42,1.36c0.51,0.4,1.16,0.68,1.93,0.85v-0.26v19.67H69.68z M283.46,20.92
				c40.11,0,72.85,32.74,72.85,72.88s-32.74,72.88-72.85,72.88c-40.14,0-72.88-32.74-72.88-72.88S243.33,20.92,283.46,20.92z
				 M283.46,29.37c35.46,0,64.43,28.94,64.43,64.43s-28.97,64.43-64.43,64.43c-35.49,0-64.43-28.94-64.43-64.43
				S247.97,29.37,283.46,29.37z M283.32,37.56c4.14,0,7.51,3.37,7.51,7.54s-3.37,7.54-7.51,7.54c-4.17,0-7.54-3.37-7.54-7.54
				S279.16,37.56,283.32,37.56z M252.14,125.06c-4.31,1.98-9.38,0.11-11.37-4.2c-1.96-4.28-0.11-9.35,4.2-11.37
				c7.71-3.2,15.22-8.39,20.18-15.02c4.93-6.24,8.96-14.51,9.64-26.25c0.03-0.6,0.11-1.16,0.26-1.7V66.5
				c0.03-0.06,0.03-0.11,0.06-0.17V66.3c0.03-0.06,0.03-0.11,0.06-0.17l0.03-0.06c0-0.06,0.03-0.09,0.03-0.14l0.03-0.06
				c0-0.03,0.03-0.09,0.03-0.11l0.06-0.11l0.03-0.09c0.03-0.03,0.03-0.06,0.06-0.11l0.03-0.06c0-0.06,0.03-0.09,0.06-0.17l0,0
				c0.03-0.06,0.06-0.11,0.09-0.17c0.23-0.51,0.51-0.99,0.85-1.42l0,0c0.09-0.11,0.14-0.23,0.26-0.31l0.03-0.03
				c0.03-0.06,0.06-0.09,0.09-0.14l0.03-0.03c0.03-0.03,0.06-0.09,0.09-0.11l0.14-0.14l0.06-0.06c0.06-0.03,0.06-0.06,0.09-0.09
				l0.06-0.09l0.09-0.06l0.31-0.28c0.03-0.03,0.06-0.06,0.09-0.09l0.03-0.03c0.06-0.06,0.09-0.09,0.14-0.11l0.03-0.03
				c0.11-0.09,0.2-0.14,0.31-0.23l0,0c0.45-0.34,0.91-0.62,1.42-0.85c0.06-0.03,0.11-0.06,0.17-0.09h0.03
				c0.06-0.03,0.11-0.06,0.14-0.09l0.06-0.03c0.06,0,0.09-0.03,0.14-0.06h0.09l0.09-0.06c0.03,0,0.09,0,0.11-0.03l0.09-0.03
				c0.03,0,0.09-0.03,0.14-0.06h0.06c0.03-0.03,0.09-0.03,0.14-0.06h0.03c0.09-0.03,0.14-0.03,0.2-0.06h0.03
				c0.54-0.14,1.11-0.23,1.67-0.28h0.03c0.06,0,0.11,0,0.2,0h0.03c0.03,0,0.09,0,0.14,0h0.17c0.06,0,0.11,0,0.14,0h0.06
				c0.06,0,0.11,0,0.2,0c0.57,0.06,1.13,0.14,1.7,0.28h0.03c0.06,0.03,0.11,0.03,0.17,0.06h0.03c0.06,0.03,0.09,0.03,0.17,0.06h0.06
				c0.03,0.03,0.09,0.06,0.14,0.06l0.06,0.03c0.03,0.03,0.06,0.03,0.11,0.03l0.11,0.06h0.06c0.06,0.03,0.11,0.06,0.14,0.06
				l0.03,0.03c0.09,0.03,0.11,0.06,0.17,0.09h0.03c0.06,0.03,0.11,0.06,0.17,0.09c0.51,0.23,0.96,0.51,1.42,0.85
				c0.11,0.09,0.2,0.14,0.31,0.23l0.03,0.03c0.06,0.03,0.09,0.06,0.11,0.11l0.06,0.03c0.03,0.03,0.06,0.06,0.09,0.09l0.17,0.14
				l0.06,0.06c0.03,0.03,0.06,0.06,0.09,0.09l0.23,0.23l0.06,0.06l0.14,0.14c0.03,0.03,0.03,0.09,0.09,0.11l0.03,0.03
				c0.03,0.06,0.09,0.09,0.11,0.14l0.03,0.03c0.09,0.09,0.14,0.2,0.23,0.31l0,0c0.34,0.43,0.62,0.91,0.85,1.42
				c0.03,0.06,0.06,0.11,0.09,0.17l0,0c0.03,0.09,0.06,0.11,0.06,0.17l0.03,0.06c0.03,0.06,0.06,0.09,0.06,0.11l0.03,0.09l0.06,0.11
				c0,0.03,0.03,0.09,0.03,0.11l0.03,0.06c0,0.06,0.03,0.09,0.03,0.14l0.03,0.06c0.03,0.06,0.03,0.11,0.06,0.17v0.03
				c0.03,0.06,0.03,0.11,0.06,0.17v0.03c0.14,0.54,0.26,1.11,0.28,1.7c0.68,11.74,4.82,19.87,9.72,26.11
				c4.68,6.6,11.93,12.13,20.04,15.31c4.31,1.98,6.18,7.06,4.2,11.34c-1.98,4.31-7.06,6.18-11.37,4.2
				c-10.15-4.34-20.86-13.18-27.35-22.42c-1.39-1.79-2.72-3.69-3.91-5.73c-1.22,2.04-2.52,3.94-3.94,5.73
				C272.35,112.03,262.06,120.67,252.14,125.06L252.14,125.06z M79.26,238.11l-5.7-32.83H73.3l-5.41,32.83H79.26z M170.53,282.47
				c-0.09,0.17-0.14,0.28-0.2,0.34c-0.03,0.03-0.06,0.09-0.06,0.2c-0.09,0.06-0.14,0.11-0.2,0.17c-0.03,0.06-0.11,0.06-0.2,0.06
				c-0.06,0.11-0.17,0.17-0.26,0.2c-0.09,0.06-0.17,0.11-0.26,0.2c-1.56,1.19-3.09,2.27-4.65,3.17c-1.56,0.91-3.12,1.53-4.65,1.87
				c-1.64,0.51-3.34,0.94-5.13,1.22c-1.76,0.31-3.63,0.45-5.61,0.45c-3.51,0-6.72-0.48-9.55-1.47c-2.86-0.99-5.3-2.52-7.37-4.59
				c-2.07-2.07-3.63-4.51-4.65-7.31c-1.05-2.78-1.56-6.01-1.56-9.64c0-4.05,0.54-7.51,1.67-10.4c1.13-2.89,2.75-5.16,4.9-6.77
				c2.24-1.73,4.79-3.26,7.57-4.68c2.81-1.36,5.92-2.61,9.38-3.74l19.64-6.58v-2.86c0-0.85-0.09-1.7-0.26-2.58
				c-0.17-0.85-0.43-1.73-0.77-2.58c-0.34-0.85-0.88-1.5-1.62-1.93c-0.74-0.43-1.62-0.65-2.66-0.65c-1.22,0-2.18,0.23-2.98,0.65
				c-0.77,0.43-1.36,1.08-1.81,1.93c-0.34,0.85-0.62,1.76-0.82,2.66c-0.23,0.88-0.34,1.81-0.34,2.78v3.09h-28.54v-20.04
				c2.24-1.47,4.54-2.75,6.89-3.88c2.38-1.11,4.88-2.07,7.43-2.83c2.61-0.77,5.22-1.42,7.91-1.87c2.66-0.48,5.33-0.82,8.02-0.96
				c0.26,0,0.51,0,0.77,0c0.26,0,0.51-0.06,0.79-0.14c0.14,0,0.37,0,0.62,0s0.51,0,0.79,0c0.26,0,0.51,0,0.77,0
				c0.26,0,0.51-0.06,0.77-0.14c0.26,0,0.54,0,0.79,0c0.26,0,0.51,0,0.77,0c0.79,0,1.59,0.03,2.38,0.06
				c0.82,0.06,1.67,0.11,2.52,0.23c0.43,0,0.88,0.03,1.3,0.06s0.91,0.09,1.42,0.2c0.43,0,0.85,0,1.3,0.06
				c0.43,0.06,0.85,0.11,1.28,0.2c1.39,0.26,2.75,0.54,4.08,0.91c1.33,0.34,2.69,0.71,4.08,1.16c1.28,0.43,2.52,0.94,3.74,1.53
				c1.19,0.62,2.32,1.3,3.34,2.1c2.15,1.62,3.88,3.4,5.13,5.36c1.22,1.93,2.04,3.94,2.38,6.01c0.43,2.07,0.71,4.22,0.85,6.46
				c0.11,2.24,0.2,4.51,0.2,6.86v22.48c0,0.17,0,0.34,0,0.45c0,0.14,0,0.23,0,0.34c0,0.09,0,0.17,0,0.26c0,0.06,0,0.17,0,0.26
				c0,0.94,0.03,1.87,0.11,2.78c0.09,0.91,0.17,1.79,0.26,2.64c0.17,0.88,0.54,1.67,1.11,2.41s1.3,1.45,2.27,2.13v17.97H170.5v-6.27
				H170.53z M169.37,254.04c-0.09,0.17-0.2,0.28-0.31,0.31c-0.14,0.03-0.23,0.11-0.34,0.2c-0.17,0.09-0.28,0.14-0.37,0.2
				s-0.23,0.06-0.4,0.06c-0.26,0.09-0.51,0.17-0.77,0.26c-0.26,0.09-0.48,0.17-0.65,0.26c-0.09,0.09-0.2,0.14-0.26,0.14h-0.14
				l-0.11,0.14c-1.13,0.34-2.24,0.77-3.37,1.28c-1.13,0.51-2.15,1.02-3.09,1.56c-0.96,0.6-1.67,1.3-2.15,2.13
				c-0.45,0.82-0.71,1.79-0.71,2.92c0,0.09,0,0.14,0,0.17c0,0.06,0,0.11,0,0.2c0,0.09,0,0.17,0,0.26c0,0.62,0.11,1.19,0.34,1.67
				c0.2,0.54,0.48,0.99,0.85,1.45c0.34,0.51,0.71,0.88,1.13,1.11c0.43,0.2,0.96,0.26,1.56,0.17c0.09,0,0.17,0,0.26,0h0.26
				c0.71,0,1.36-0.03,2.01-0.11c0.65-0.09,1.3-0.26,2.01-0.51c0.68-0.26,1.39-0.6,2.13-0.96c0.74-0.4,1.45-0.85,2.13-1.36v-11.55
				H169.37z M243.58,232.3l5.44-6.32c0.43-0.43,0.82-0.88,1.22-1.36s0.71-0.94,0.96-1.36c0.28-0.43,0.51-0.88,0.79-1.36
				c0.26-0.48,0.43-0.91,0.51-1.36c0.17-0.51,0.31-1.11,0.45-1.73c0.11-0.65,0.2-1.28,0.2-1.9c0-0.34,0-0.68,0-1.02
				c0-0.34,0.03-0.68,0.14-1.02c0-0.34,0-0.74,0-1.11c0-0.4,0-0.79,0-1.22c0-0.2,0-0.34,0-0.48c0-0.11,0-0.23,0-0.31
				c0-0.17,0-0.34,0-0.51s0-0.34,0-0.51v-3.49h34.13v18.23c-0.2,0.17-0.43,0.37-0.74,0.57c-0.28,0.23-0.65,0.43-1.08,0.6
				c-0.17,0.09-0.37,0.2-0.6,0.31c-0.2,0.14-0.4,0.26-0.6,0.31c-0.26,0.17-0.48,0.37-0.68,0.54c-0.23,0.17-0.43,0.34-0.6,0.51
				c-0.09,0.09-0.17,0.17-0.26,0.26s-0.17,0.14-0.26,0.14c-0.09,0.09-0.17,0.17-0.26,0.26s-0.2,0.17-0.26,0.26
				c-0.11,0.09-0.17,0.17-0.2,0.26c-0.06,0.09-0.11,0.14-0.23,0.14c-0.06,0.09-0.14,0.17-0.17,0.26c-0.06,0.09-0.11,0.17-0.2,0.26
				l-9.44,11.62l8.53,17.6c0,0.26,0.03,0.45,0.06,0.57c0.06,0.14,0.11,0.28,0.2,0.45c0.11,0.09,0.17,0.17,0.2,0.26
				c0.06,0.09,0.11,0.2,0.2,0.28c0,0.06,0,0.14,0,0.26c0,0.09,0.03,0.11,0.14,0.11c0.43,0.96,0.88,1.87,1.33,2.78
				c0.48,0.91,0.96,1.79,1.5,2.64c0.51,0.88,1.19,1.64,2.01,2.27c0.82,0.65,1.79,1.25,2.89,1.76v17.97h-27.52l-17.6-35.43h-0.26
				v6.46c0,0.2,0,0.34,0,0.45c0,0.14,0,0.26,0,0.34c0,0.06,0,0.17,0,0.26s0,0.17,0,0.26c0,1.02,0.06,1.98,0.14,2.83
				c0.06,0.88,0.17,1.7,0.26,2.47c0.17,0.77,0.54,1.53,1.11,2.27c0.54,0.74,1.3,1.45,2.24,2.13v17.97h-38.01V270.5
				c0.11,0.09,0.17,0.11,0.2,0.11c0.06,0,0.11-0.03,0.2-0.11c0.09-0.09,0.17-0.17,0.2-0.2c0.06-0.03,0.11-0.11,0.2-0.2
				c0.68-0.71,1.28-1.36,1.76-2.07c0.48-0.68,0.74-1.36,0.82-2.07c0.17-0.68,0.28-1.45,0.34-2.32c0.03-0.88,0.06-1.76,0.06-2.69
				v-0.14c0-0.09,0-0.2,0-0.26v-53.66c0,0.09,0,0.09,0,0s0-0.17,0-0.26s0-0.17,0-0.26c0-0.11,0-0.17,0-0.26
				c0-0.96-0.06-1.9-0.14-2.78c-0.09-0.94-0.2-1.76-0.37-2.52c-0.09-0.79-0.43-1.56-0.99-2.27c-0.57-0.74-1.3-1.45-2.27-2.13V177.9
				h34.27v54.4H243.58z M338.6,282.47c-0.09,0.17-0.17,0.28-0.2,0.34c-0.06,0.03-0.09,0.09-0.09,0.2c-0.06,0.06-0.14,0.11-0.17,0.17
				c-0.06,0.06-0.11,0.06-0.2,0.06c-0.09,0.11-0.17,0.17-0.26,0.2c-0.09,0.06-0.2,0.11-0.28,0.2c-1.53,1.19-3.06,2.27-4.65,3.17
				c-1.53,0.91-3.09,1.53-4.65,1.87c-1.64,0.51-3.34,0.94-5.1,1.22c-1.76,0.31-3.63,0.45-5.61,0.45c-3.54,0-6.72-0.48-9.58-1.47
				c-2.83-0.99-5.3-2.52-7.37-4.59s-3.63-4.51-4.65-7.31c-1.02-2.78-1.56-6.01-1.56-9.64c0-4.05,0.57-7.51,1.67-10.4
				c1.13-2.89,2.78-5.16,4.93-6.77c2.24-1.73,4.76-3.26,7.54-4.68c2.83-1.36,5.95-2.61,9.38-3.74l19.64-6.58v-2.86
				c0-0.85-0.06-1.7-0.23-2.58c-0.2-0.85-0.45-1.73-0.79-2.58s-0.88-1.5-1.62-1.93s-1.62-0.65-2.66-0.65
				c-1.19,0-2.18,0.23-2.95,0.65s-1.39,1.08-1.81,1.93c-0.34,0.85-0.62,1.76-0.85,2.66c-0.23,0.88-0.31,1.81-0.31,2.78v3.09h-28.6
				v-20.04c2.24-1.47,4.56-2.75,6.94-3.88c2.38-1.11,4.85-2.07,7.43-2.83s5.22-1.42,7.88-1.87c2.66-0.48,5.36-0.82,8.02-0.96
				c0.26,0,0.54,0,0.77,0c0.28,0,0.54-0.06,0.77-0.14c0.2,0,0.43,0,0.68,0c0.26,0,0.51,0,0.77,0c0.26,0,0.51,0,0.77,0
				c0.28,0,0.51-0.06,0.79-0.14c0.26,0,0.51,0,0.77,0c0.26,0,0.51,0,0.77,0c0.79,0,1.59,0.03,2.41,0.06
				c0.82,0.06,1.64,0.11,2.52,0.23c0.43,0,0.85,0.03,1.28,0.06s0.91,0.09,1.45,0.2c0.43,0,0.85,0,1.28,0.06s0.88,0.11,1.3,0.2
				c1.36,0.26,2.75,0.54,4.05,0.91c1.36,0.34,2.72,0.71,4.08,1.16c1.3,0.43,2.55,0.94,3.74,1.53c1.22,0.62,2.35,1.3,3.37,2.1
				c2.15,1.62,3.86,3.4,5.1,5.36c1.25,1.93,2.04,3.94,2.41,6.01c0.43,2.07,0.71,4.22,0.82,6.46c0.14,2.24,0.2,4.51,0.2,6.86v22.48
				c0,0.17,0,0.34,0,0.45c0,0.14,0,0.23,0,0.34c0,0.09,0,0.17,0,0.26c0,0.06,0,0.17,0,0.26c0,0.94,0.03,1.87,0.14,2.78
				c0.09,0.91,0.17,1.79,0.26,2.64c0.17,0.88,0.54,1.67,1.08,2.41c0.57,0.74,1.33,1.45,2.27,2.13v17.97H338.6V282.47L338.6,282.47z
				 M337.41,254.04c-0.06,0.17-0.17,0.28-0.31,0.31c-0.11,0.03-0.23,0.11-0.31,0.2c-0.17,0.09-0.31,0.14-0.4,0.2
				s-0.23,0.06-0.37,0.06c-0.28,0.09-0.54,0.17-0.79,0.26s-0.45,0.17-0.65,0.26c-0.09,0.09-0.17,0.14-0.23,0.14h-0.14l-0.14,0.14
				c-1.13,0.34-2.24,0.77-3.34,1.28c-1.13,0.51-2.18,1.02-3.12,1.56c-0.96,0.6-1.67,1.3-2.15,2.13c-0.45,0.82-0.71,1.79-0.71,2.92
				c0,0.09,0,0.14,0,0.17c0,0.06,0,0.11,0,0.2c0,0.09,0,0.17,0,0.26c0,0.62,0.14,1.19,0.34,1.67c0.23,0.54,0.48,0.99,0.82,1.45
				c0.37,0.51,0.74,0.88,1.19,1.11c0.43,0.2,0.94,0.26,1.53,0.17c0.09,0,0.2,0,0.28,0h0.26c0.68,0,1.33-0.03,1.98-0.11
				c0.65-0.09,1.33-0.26,2.01-0.51c0.71-0.26,1.42-0.6,2.13-0.96c0.74-0.4,1.45-0.85,2.13-1.36v-11.55H337.41z M407.25,260.25
				c0,0.17,0,0.31,0,0.43c0,0.14,0,0.26,0,0.34s0,0.23,0,0.37c0,0.28,0,0.51,0,0.74c0,0.2,0,0.4,0,0.6c0,0.14,0,0.31,0,0.48
				c0,0.2,0,0.37,0,0.54c0,1.02,0.09,2.01,0.31,2.92c0.2,0.88,0.51,1.73,0.85,2.52c0.34,0.85,0.91,1.47,1.73,1.87
				c0.82,0.37,1.9,0.57,3.17,0.57c0.77,0,1.5-0.14,2.21-0.45c0.68-0.31,1.33-0.77,1.93-1.36c0.51-0.6,0.91-1.28,1.25-2.01
				c0.28-0.71,0.43-1.53,0.43-2.38c0-1.3-0.26-2.41-0.77-3.37c-0.54-0.94-1.25-1.7-2.21-2.32c-0.94-0.68-1.93-1.25-2.98-1.67
				c-1.02-0.43-2.15-0.82-3.34-1.16c-0.26-0.09-0.51-0.14-0.71-0.2c-0.23-0.03-0.43-0.11-0.6-0.17c-0.26,0-0.48-0.03-0.71-0.09
				c-0.2-0.03-0.45-0.11-0.71-0.2c-0.43-0.09-0.82-0.17-1.22-0.26c-0.4-0.09-0.77-0.17-1.11-0.26c-0.11,0-0.14-0.03-0.14-0.11h-0.26
				c-0.17,0-0.34-0.03-0.51-0.09c-0.17-0.03-0.34-0.11-0.54-0.2c-0.17,0-0.34-0.03-0.48-0.06c-0.17-0.03-0.37-0.11-0.54-0.2
				c-3.46-0.77-6.63-1.7-9.64-2.78c-2.98-1.08-5.7-2.3-8.19-3.69c-2.41-1.36-4.25-3.46-5.5-6.26s-1.87-6.32-1.87-10.54
				c0-2.15,0.17-4.2,0.51-6.12c0.37-1.96,0.82-3.74,1.42-5.39c0.71-1.7,1.64-3.32,2.86-4.79c1.19-1.45,2.75-2.83,4.65-4.11
				c0.94-0.71,1.98-1.3,3.09-1.81c1.13-0.51,2.32-0.96,3.63-1.3c1.19-0.43,2.44-0.79,3.74-1.11c1.3-0.28,2.61-0.54,3.88-0.71
				c0.77-0.17,1.56-0.28,2.32-0.31c0.79-0.03,1.56-0.11,2.32-0.2c0.43,0,0.82,0,1.16,0s0.74-0.06,1.16-0.14c0.34,0,0.71,0,1.11,0
				s0.77,0,1.11,0c0.43,0,0.82,0,1.22,0s0.77,0,1.11,0c0.17,0,0.37,0,0.6,0c0.2,0,0.4,0,0.57,0c0.17,0.09,0.37,0.14,0.6,0.14
				c0.2,0,0.4,0,0.57,0c2.86,0.09,5.67,0.4,8.48,0.91c2.81,0.51,5.58,1.16,8.33,1.96c2.75,0.77,5.41,1.79,7.97,3.09
				c2.52,1.28,4.96,2.81,7.29,4.51v19.13h-28.29v-2.95c0,0.09,0,0.09,0,0c0-0.11,0-0.2,0-0.28c0-0.06,0-0.14,0-0.17
				c0-0.06,0-0.11,0-0.2s0-0.17,0-0.26c-0.11-0.88-0.26-1.67-0.54-2.47c-0.26-0.77-0.6-1.5-1.02-2.21
				c-0.43-0.68-1.05-1.22-1.81-1.62c-0.79-0.37-1.7-0.57-2.72-0.57c-0.85,0-1.62,0.14-2.32,0.45c-0.68,0.31-1.33,0.71-1.96,1.22
				c-0.6,0.51-1.02,1.11-1.28,1.76s-0.4,1.36-0.4,2.13c0,1.02,0.2,1.93,0.6,2.72c0.37,0.77,0.96,1.42,1.73,1.93
				c0.79,0.51,1.62,0.96,2.52,1.28c0.91,0.37,1.79,0.62,2.66,0.79c0.17,0.09,0.37,0.14,0.57,0.2c0.23,0.06,0.45,0.11,0.71,0.2
				c0.17,0.09,0.37,0.14,0.6,0.2c0.23,0.03,0.4,0.06,0.6,0.06c0.14,0,0.34,0.03,0.51,0.06c0.17,0.06,0.4,0.09,0.65,0.09
				c0.17,0.09,0.34,0.11,0.51,0.17s0.34,0.06,0.51,0.06c0.17,0.11,0.34,0.17,0.51,0.2c0.17,0.06,0.37,0.09,0.51,0.09
				c0.11,0,0.2,0,0.28,0s0.17,0,0.26,0c0.09,0.09,0.17,0.11,0.26,0.11c0.06,0,0.17,0,0.26,0c3.8,0.85,7.31,1.87,10.6,2.98
				c3.29,1.13,6.35,2.41,9.18,3.88c2.83,1.39,4.96,3.63,6.41,6.75c1.42,3.09,2.13,7.06,2.13,11.88c0,5.27-0.88,9.67-2.58,13.24
				c-1.73,3.6-4.37,6.24-7.88,7.97c-3.46,1.81-7.23,3.12-11.34,3.94c-4.08,0.82-8.42,1.22-12.98,1.22c-1.13,0-2.21-0.03-3.32-0.06
				c-1.05-0.06-2.21-0.17-3.4-0.31c-0.62-0.09-1.22-0.17-1.81-0.2c-0.62-0.06-1.19-0.11-1.67-0.2c-0.62-0.09-1.22-0.17-1.81-0.26
				c-0.62-0.11-1.22-0.17-1.81-0.26c-2.07-0.28-4.11-0.65-6.09-1.16s-3.94-1.19-5.92-1.96c-1.9-0.77-3.66-1.67-5.3-2.78
				c-1.64-1.08-3.15-2.27-4.54-3.57v-21.32h28.71v1.93H407.25z M489.86,210.84c0.45-0.09,0.88-0.23,1.3-0.45s0.88-0.45,1.3-0.71
				c0.43-0.17,0.88-0.37,1.33-0.57c0.48-0.23,0.94-0.43,1.36-0.6c1.3-0.51,2.58-0.96,3.88-1.36c1.3-0.37,2.58-0.65,3.88-0.82
				c1.28-0.17,2.58-0.31,3.86-0.4c1.3-0.09,2.58-0.14,3.77-0.14c1.56,0.09,3.06,0.28,4.54,0.54c1.45,0.26,2.83,0.65,4.11,1.16
				c1.3,0.51,2.49,1.08,3.57,1.67c1.08,0.6,2.01,1.3,2.78,2.07c1.39,1.39,2.49,2.78,3.34,4.2c0.88,1.42,1.47,2.86,1.81,4.34
				c0.34,1.47,0.62,3,0.79,4.65c0.17,1.64,0.26,3.32,0.26,5.05v30.25c0,0.2,0,0.34,0,0.45c0,0.14,0,0.26,0,0.34
				c0,0.06,0,0.17,0,0.26s0,0.17,0,0.26s0,0.17,0,0.26s0,0.14,0,0.2c0,0.03,0,0.11,0,0.2c0,0.09,0,0.17,0,0.26s0,0.17,0,0.26
				c0,0.85,0.06,1.7,0.11,2.52c0.09,0.82,0.23,1.62,0.43,2.38c0.14,0.79,0.48,1.47,0.99,2.1c0.54,0.6,1.22,1.11,2.1,1.53v17.97
				h-32.46c-0.26-1.13-0.48-2.3-0.65-3.49c-0.17-1.22-0.34-2.47-0.51-3.77c-0.09-0.68-0.17-1.33-0.2-1.93
				c-0.06-0.6-0.06-1.25-0.06-1.93c-0.11-0.62-0.14-1.25-0.14-1.87c0-0.65,0-1.28,0-1.87c-0.09-0.71-0.11-1.42-0.11-2.15
				s0-1.45,0-2.13s0-1.42,0-2.13c0-0.74,0-1.5,0-2.27c0-0.17,0-0.31,0-0.45s0-0.23,0-0.31c0-0.2,0-0.34,0-0.45c0-0.14,0-0.26,0-0.34
				v-24.04v0.11v-0.11c0-0.2,0-0.31,0-0.4c0-0.17,0-0.43,0-0.77c0-0.37,0-0.74,0-1.16c0-0.43-0.03-0.88-0.09-1.36
				c-0.03-0.48-0.14-0.99-0.31-1.47c0-0.11,0-0.2,0-0.28s-0.06-0.14-0.14-0.26c-0.09-0.17-0.11-0.28-0.11-0.37s-0.03-0.2-0.09-0.28
				c-0.03-0.09-0.06-0.17-0.06-0.26c-0.09,0-0.11-0.03-0.11-0.14c0-0.09,0-0.14,0-0.23c-0.34-0.54-0.77-1.05-1.25-1.56
				c-0.45-0.54-0.96-0.96-1.47-1.3c-0.62-0.43-1.22-0.74-1.9-0.91c-0.62-0.17-1.3-0.26-1.98-0.26c-0.34,0-0.68,0.03-0.96,0.09
				c-0.31,0.03-0.65,0.09-0.99,0.17c-0.34,0.09-0.65,0.17-0.96,0.28c-0.28,0.09-0.62,0.2-0.96,0.37v30.25c0,0.2,0,0.34,0,0.45
				c0,0.14,0,0.26,0,0.34c0,0.06,0,0.2,0,0.4c0,0.06,0,0.17,0,0.31c0,0.11,0,0.28,0,0.45c0,0.09,0,0.17,0,0.26s0,0.17,0,0.26
				c0,0.85,0.06,1.7,0.11,2.52c0.11,0.82,0.23,1.62,0.4,2.38c0.17,0.79,0.54,1.47,1.11,2.1c0.57,0.6,1.28,1.11,2.13,1.53v17.97
				H455.6v-18.23c0.96-0.43,1.7-0.96,2.27-1.62c0.57-0.65,0.88-1.39,0.96-2.27c0.17-0.79,0.31-1.62,0.4-2.52
				c0.09-0.91,0.14-1.87,0.14-2.89c0-0.11,0-0.2,0-0.26c0-0.09,0-0.17,0-0.23c0-0.03,0-0.11,0-0.17v-53.66v0.14c0-0.11,0-0.2,0-0.28
				s0-0.14,0-0.17c0-0.06,0-0.11,0-0.2c0-0.11,0-0.17,0-0.26c0-0.11,0-0.2,0-0.28c0-0.94-0.06-1.87-0.14-2.75
				c-0.09-0.94-0.23-1.81-0.4-2.66c-0.17-0.85-0.51-1.62-1.11-2.27c-0.54-0.65-1.3-1.22-2.24-1.73V177.9h34.38L489.86,210.84
				L489.86,210.84z"/>
			<path class="st2" d="M170.7,375.93h225.5c6.6,0,11.99-5.39,11.99-11.99v-52.02c0-6.58-5.39-11.96-11.99-11.96H170.7
				c-5.41,0-10.03,3.66-11.48,8.62h10.03v9.27c0,5.92-4.68,10.74-10.52,11v35.09C158.74,370.54,164.13,375.93,170.7,375.93z"/>
			<path class="st3" d="M183.6,362.75c-2.66,0-4.82-2.15-4.82-4.82v-40c0-2.66,2.15-4.82,4.82-4.82h40.03
				c2.64,0,4.79,2.15,4.79,4.82v40c0,2.66-2.15,4.82-4.79,4.82H183.6z"/>
			
				<linearGradient id="SVGID_1_" gradientUnits="userSpaceOnUse" x1="2739.0999" y1="7588.6865" x2="4490.1001" y2="7588.6865" gradientTransform="matrix(0.0283 0 0 0.0283 101.0544 136.0151)">
				<stop  offset="0" style="stop-color:#F4F3F3"/>
				<stop  offset="0.102" style="stop-color:#F4F3F3"/>
				<stop  offset="0.1686" style="stop-color:#E1E3E1"/>
				<stop  offset="1" style="stop-color:#E1E3E1"/>
			</linearGradient>
			<path class="st4" d="M225.55,338.8h-43.88c-1.62,0-2.89,1.28-2.89,2.86v16.27c0,2.66,2.15,4.82,4.82,4.82h40.03
				c2.64,0,4.79-2.15,4.79-4.82v-16.27C228.42,340.07,227.14,338.8,225.55,338.8L225.55,338.8z"/>
			
				<linearGradient id="SVGID_2_" gradientUnits="userSpaceOnUse" x1="2739.0999" y1="6681.2676" x2="4490.1001" y2="6681.2676" gradientTransform="matrix(0.0283 0 0 0.0283 101.0544 136.0151)">
				<stop  offset="0" style="stop-color:#F4F3F3"/>
				<stop  offset="0.102" style="stop-color:#F4F3F3"/>
				<stop  offset="0.1686" style="stop-color:#F9F9F9"/>
				<stop  offset="1" style="stop-color:#F9F9F9"/>
			</linearGradient>
			<path class="st5" d="M181.67,337.07h43.88c1.59,0,2.86-1.28,2.86-2.86v-16.27c0-2.66-2.15-4.82-4.79-4.82H183.6
				c-2.66,0-4.82,2.15-4.82,4.82v16.27C178.78,335.79,180.06,337.07,181.67,337.07L181.67,337.07z"/>
			<path class="st3" d="M183.51,361.16c-1.73,0-3.15-1.42-3.15-3.12v-40.2c0-1.73,1.42-3.15,3.15-3.15h40.2
				c1.73,0,3.15,1.42,3.15,3.15v40.2c0,1.7-1.42,3.12-3.15,3.12H183.51z"/>
			<path class="st6" d="M210.95,350.73l-9.67,2.78c-0.82,0.26-1.67-0.23-1.9-1.05l-7.31-25.26c-0.23-0.82,0.26-1.67,1.08-1.93
				l9.98-2.86c2.3-0.68,4.79,0,6.41,1.79c2.95,3.32,2.27,7.63-0.45,9.95c3.49,0.2,6.63,2.58,7.65,6.09
				C218.01,344.75,215.43,349.43,210.95,350.73z"/>
			<path class="st2" d="M212.34,332.99c1.47-2.83,1.39-6.49-1.05-9.61c-1.87-2.35-5.81-3.6-8.73-2.75l-10.23,2.95
				c-1.64,0.48-2.58,2.18-2.13,3.83l7.48,25.88c0.45,1.64,2.18,2.58,3.83,2.1l10.29-2.95c3.46-1.02,6.69-4.73,7.06-8.31
				C219.43,338.77,216.43,334.6,212.34,332.99L212.34,332.99z M210.95,350.73l-9.67,2.78c-0.82,0.26-1.67-0.23-1.9-1.05l-7.31-25.26
				c-0.23-0.82,0.26-1.67,1.08-1.93l9.98-2.86c2.3-0.68,4.79,0,6.38,1.79c2.98,3.32,2.3,7.63-0.43,9.95
				c3.49,0.2,6.63,2.58,7.65,6.09C218.01,344.75,215.43,349.43,210.95,350.73z"/>
			<path class="st2" d="M213.96,343.98c0-4.28-3.46-7.74-7.74-7.8c2.58-2.21,3.29-6.35,0.51-9.55c-1.53-1.79-4.03-2.47-6.29-1.81
				l-8.33,2.41l7.29,25.23c0.23,0.82,1.08,1.3,1.9,1.05l6.86-1.96c0.03-0.03,0.06-0.03,0.09-0.06
				C211.52,350.59,213.96,347.58,213.96,343.98z"/>
			<path class="st3" d="M336.3,355.95c-8.36,0-13.21-5.05-13.21-15.08v-16.98c0-2.47,1.36-3.94,3.4-3.94c2.01,0,3.43,1.47,3.43,3.94
				v16.44c0,6.77,2.18,8.9,6.38,8.9s6.38-2.13,6.38-8.9v-16.44c0-2.47,1.42-3.94,3.43-3.94c2.04,0,3.43,1.47,3.43,3.94v16.98
				C349.54,350.9,344.69,355.95,336.3,355.95L336.3,355.95z M259.46,336.93c2.83-1.87,4.31-4.42,4.31-7.43
				c0-5.9-4.14-10.09-12.5-10.09h-9.52c-2.04,0-3.4,1.33-3.4,3.37v29.96c0,1.98,1.36,3.37,3.4,3.37l9.47,0.11
				c10.86,0.09,14.43-4.59,14.43-10.29c0-4.08-2.32-7.31-6.18-8.9c0,0-0.06,0-0.06-0.06C259.4,336.95,259.46,336.93,259.46,336.93z
				 M282.25,334.74l-7.65-12.76c-0.77-1.25-1.59-2.04-3.06-2.04c-1.93,0-3.46,1.33-3.46,3.09c0,1.08,0.34,1.9,0.91,2.81l9.84,15.79
				v10.54c0,2.47,1.56,3.94,3.37,3.94c2.07,0,3.49-1.47,3.49-3.94v-10.54l9.81-15.79c0.57-0.91,0.91-1.73,0.91-2.81
				c0-1.76-1.5-3.09-3.46-3.09c-1.5,0-2.3,0.79-3.06,2.04L282.25,334.74z M356.97,332.53c0.79,0,1.81-0.43,2.38-1.67
				c0.91-1.93,1.81-5.64,1.81-7.31c0-2.27-1.05-3.71-3.54-3.71c-2.52,0.11-3.54,1.73-3.54,4.73v2.69
				C354.08,330.63,355.01,332.53,356.97,332.53z M293.36,346.51c0-2.41,1.9-3.6,3.71-3.46c4.08,0.34,1.62,6.41,7.37,6.32
				c3.37-0.03,4.85-2.1,4.85-6.41v-19.08c0-2.47,1.28-3.94,3.43-3.94c1.98,0,3.43,1.47,3.43,3.94v18.91c0,8.48-4,13.18-11.91,13.18
				c-7.99,0-10.86-6.18-10.86-9.47L293.36,346.51L293.36,346.51z M253.5,333.72c-2.24,0.43-3.66,1.33-3.66,3.49
				c0,2.18,1.36,3.37,3.6,3.66c3.86,0.43,5.19,1.76,5.19,4.71c0,2.69-2.24,4.2-6.52,4.2h-7V325.7h7.57c2.86,0,4.28,1.7,4.28,4.25
				C256.96,332.19,255.63,333.35,253.5,333.72L253.5,333.72z M369.72,346.85c-0.88-0.99-1.96-1.98-3.17-1.98
				c-1.53,0-3.26,0.94-3.26,3.37c0,0.91,0.43,2.04,1.3,3.03c2.32,2.86,6.18,5.19,11.59,5.19c6.41,0,11.79-3.6,11.79-10.09
				c0-12.59-16.72-11.37-16.72-16.95c0-2.18,1.47-3.43,3.94-3.43c1.9,0,3.4,0.45,4.51,1.36c1.25,0.96,2.18,2.81,4.22,2.81
				c1.73,0,3.26-1.13,3.26-2.83c0-2.49-2.47-4.82-4.62-6.04c-1.81-1.05-4.2-1.87-7.43-1.87c-5.41,0.11-10.74,3.06-10.74,10.09
				c0,11.37,16.75,9.35,16.75,16.5c0,2.55-2.01,3.86-5.02,3.86C373.46,349.85,371.57,348.66,369.72,346.85z"/>
			<path class="st7" d="M326.49,320.57c2.01,0,3.43,1.47,3.43,3.97v-0.65c0-2.47-1.42-3.94-3.43-3.94c-2.04,0-3.4,1.47-3.4,3.94
				v0.65C323.09,322.04,324.45,320.57,326.49,320.57z"/>
			<path class="st7" d="M329.92,340.98c0,6.75,2.18,8.9,6.38,8.9s6.38-2.15,6.38-8.9v-0.65c0,6.77-2.18,8.9-6.38,8.9
				s-6.38-2.13-6.38-8.9V340.98z"/>
			<path class="st7" d="M371.25,329.67c0,0.14-0.03,0.26-0.03,0.37c0,5.56,16.44,4.39,16.75,16.64c0-0.11,0-0.2,0-0.31
				C387.98,333.98,371.82,334.97,371.25,329.67z"/>
			<path class="st7" d="M271.53,320.57c1.47,0,2.3,0.82,3.06,2.04l7.65,12.76l7.65-12.76c0.77-1.22,1.56-2.04,3.06-2.04
				c1.84,0,3.32,1.19,3.46,2.83c0-0.11,0-0.26,0-0.37c0-1.76-1.5-3.09-3.46-3.09c-1.5,0-2.3,0.79-3.06,2.04l-7.65,12.76l-7.65-12.76
				c-0.77-1.25-1.59-2.04-3.06-2.04c-1.93,0-3.46,1.33-3.46,3.09c0,0.11,0,0.26,0,0.37C268.24,321.76,269.69,320.57,271.53,320.57z"
				/>
			<path class="st7" d="M366.55,345.49c1.22,0,2.3,0.99,3.17,2.01c1.84,1.81,3.74,2.98,6.41,2.98c3,0,5.02-1.28,5.02-3.83
				c0-0.14,0-0.26-0.03-0.37c-0.14,2.38-2.1,3.57-4.99,3.57c-2.66,0-4.56-1.19-6.41-3c-0.88-0.99-1.96-1.98-3.2-1.98
				c-1.5,0-3.23,0.94-3.23,3.37c0,0.09,0.03,0.17,0.03,0.28c0.17-2.18,1.76-3.03,3.2-3.03L366.55,345.49L366.55,345.49z"/>
			<path class="st7" d="M375.14,320.06c3.23,0,5.61,0.79,7.43,1.84c2.04,1.19,4.39,3.37,4.59,5.73c0.03-0.11,0.03-0.23,0.03-0.31
				c0-2.49-2.47-4.82-4.62-6.04c-1.81-1.05-4.2-1.87-7.43-1.87c-5.41,0.11-10.74,3.06-10.74,10.09c0,0.11,0,0.2,0,0.31
				C364.56,323.01,369.81,320.14,375.14,320.06z"/>
			<path class="st7" d="M293.36,346.51c0,0.14,0,0.26,0,0.4c0.14-2.27,1.96-3.34,3.71-3.23c4.08,0.34,1.62,6.43,7.37,6.35
				c3.37-0.06,4.85-2.1,4.85-6.43v-0.62c0,4.31-1.47,6.38-4.85,6.41c-5.75,0.09-3.29-5.98-7.37-6.32
				C295.26,342.91,293.36,344.1,293.36,346.51z"/>
			<path class="st7" d="M346.11,319.95c-2.01,0-3.43,1.47-3.43,3.94v0.65c0-2.49,1.42-3.97,3.43-3.97c2.04,0,3.43,1.47,3.43,3.97
				v-0.65C349.54,321.42,348.15,319.95,346.11,319.95z"/>
			<path class="st7" d="M357.62,319.83c-2.52,0.11-3.54,1.73-3.54,4.73v0.62c0-3,1.02-4.62,3.54-4.71c2.35,0,3.43,1.28,3.51,3.37
				c0-0.09,0.03-0.2,0.03-0.31C361.16,321.28,360.11,319.83,357.62,319.83z"/>
			<path class="st7" d="M312.72,319.95c-2.15,0-3.43,1.47-3.43,3.94v0.65c0-2.49,1.28-3.97,3.43-3.97c1.98,0,3.43,1.47,3.43,3.97
				v-0.65C316.15,321.42,314.7,319.95,312.72,319.95z"/>
			<path class="st7" d="M241.74,320.06h9.52c8.19,0,12.33,4,12.5,9.69c0-0.09,0-0.17,0-0.26c0-5.9-4.14-10.09-12.5-10.09h-9.52
				c-2.04,0-3.4,1.33-3.4,3.37v0.65C238.34,321.39,239.7,320.06,241.74,320.06z"/>
			<path class="st7" d="M253.5,333.72c-2.24,0.43-3.66,1.33-3.66,3.49c0,0.11,0,0.2,0,0.31c0.14-1.9,1.53-2.75,3.66-3.17
				c2.13-0.37,3.46-1.5,3.46-3.74c0-0.11,0-0.23,0-0.31C256.85,332.31,255.54,333.35,253.5,333.72z"/>
			<path class="st7" d="M252.11,350.39c4.28,0,6.52-1.47,6.52-4.17c0-0.17,0-0.28,0-0.43c-0.14,2.55-2.35,3.97-6.52,3.97h-7v0.62h7
				V350.39z"/>
			<path class="st7" d="M259.46,337.04c0,0-0.06,0-0.06-0.06c0-0.03,0.06-0.06,0.06-0.06v-0.03c-0.09,0.09-0.23,0.2-0.37,0.31
				c-0.14,0.09-0.11,0.28,0.03,0.34l0.34,0.14c3.77,1.53,6.09,4.68,6.18,8.67c0-0.14,0-0.28,0-0.43c0-1.05-0.17-2.07-0.48-3.03
				C264.27,340.27,262.29,338.2,259.46,337.04z"/>
			<path class="st2" d="M118.89,324.31v-5.7c0-4.08,3.32-7.4,7.4-7.4h10.03v-17.43h5.7c4.08,0,7.4,3.34,7.4,7.43v10.01h17.43v5.7
				c0,4.08-3.32,7.4-7.4,7.4h-10.03v17.43h-5.67c-4.11,0-7.43-3.32-7.43-7.4v-10.03h-17.43V324.31z"/>
		</g>
	</g>
</g>
</svg>
